<svg width="1024" height="1024" viewBox="0 0 1024 1024" fill="none" xmlns="http://www.w3.org/2000/svg">
<path fill-rule="evenodd" clip-rule="evenodd" d="M921.62 102.4C1058.13 238.93 1058.13 785.065 921.62 921.604C785.112 1058.13 238.985 1058.13 102.38 921.604C-34.1268 785.065 -34.1268 238.93 102.38 102.4C238.985 -34.1332 785.112 -34.1332 921.62 102.4Z" fill="#3C26FF"/>
<path fill-rule="evenodd" clip-rule="evenodd" d="M368.821 441.361C359.606 432.144 347.107 426.965 334.068 426.965H245.979C232.954 426.965 220.455 421.787 211.226 412.57C202.011 403.354 196.843 390.852 196.843 377.818V291.833C196.843 278.799 202.011 266.298 211.226 257.081C220.455 247.863 232.954 242.686 245.979 242.686H335.328C347.62 242.686 359.453 247.286 368.516 255.58L478.845 356.563C497.621 373.754 526.429 373.754 545.205 356.563L655.534 255.58C664.583 247.286 676.43 242.686 688.707 242.686H778.057C791.096 242.686 803.595 247.863 812.81 257.081C822.025 266.298 827.207 278.799 827.207 291.833V377.818C827.207 390.852 822.025 403.354 812.81 412.57C803.595 421.787 791.096 426.965 778.057 426.965H689.968C676.943 426.965 664.43 432.144 655.215 441.361L546.771 549.807C537.556 559.024 525.057 564.202 512.018 564.202C498.992 564.202 486.494 559.024 477.265 549.807L368.821 441.361ZM368.821 756.478C359.606 747.263 347.107 742.08 334.068 742.08H245.979C232.954 742.08 220.455 736.898 211.226 727.683C202.011 718.468 196.843 705.969 196.843 692.929V606.95C196.843 593.916 202.011 581.414 211.226 572.198C220.455 562.98 232.954 557.803 245.979 557.803H335.328C347.62 557.803 359.453 562.402 368.516 570.697L478.845 671.686C497.621 688.869 526.429 688.869 545.205 671.686L655.534 570.697C664.583 562.402 676.43 557.803 688.707 557.803H778.057C791.096 557.803 803.595 562.98 812.81 572.198C822.025 581.414 827.207 593.916 827.207 606.95V692.929C827.207 705.969 822.025 718.468 812.81 727.683C803.595 736.898 791.096 742.08 778.057 742.08H689.968C676.943 742.08 664.43 747.263 655.215 756.478L546.771 864.924C537.556 874.139 525.057 879.321 512.018 879.321C498.992 879.321 486.494 874.139 477.265 864.924L368.821 756.478ZM425.371 182.788C415.893 173.315 413.066 159.068 418.193 146.691C423.32 134.314 435.389 126.244 448.789 126.244H575.261C588.647 126.244 600.73 134.314 605.857 146.691C610.984 159.068 608.143 173.315 598.679 182.788L546.771 234.689C537.556 243.907 525.057 249.086 512.018 249.086C498.992 249.086 486.494 243.907 477.265 234.689L425.371 182.788Z" fill="#D5D5D5"/>
</svg>
